<?xml version="1.0" encoding="utf-8"?>
<!-- Generator: Adobe Illustrator 25.1.0, SVG Export Plug-In . SVG Version: 6.00 Build 0)  -->
<svg version="1.1" id="Calque_1" xmlns="http://www.w3.org/2000/svg" xmlns:xlink="http://www.w3.org/1999/xlink" x="0px" y="0px"
	 viewBox="0 0 20 21" style="enable-background:new 0 0 20 21;" xml:space="preserve">
<style type="text/css">
	.st0{fill:#6A52F0;stroke:#6A52F0;stroke-width:0.5;stroke-miterlimit:10;}
</style>
<path class="st0" d="M6,1.9H5.8C5.9,1.9,6,1.8,6,1.7V1.9h8V1.7c0,0.1,0.1,0.2,0.2,0.2H14v1.9h1.9V1.7c0-0.9-0.7-1.7-1.7-1.7H5.8
	C4.9,0,4.2,0.8,4.2,1.7v2.1H6V1.9z M19.2,3.8H0.8C0.4,3.8,0,4.2,0,4.6v0.8c0,0.1,0.1,0.2,0.2,0.2h1.6l0.6,13.7
	c0,0.9,0.8,1.6,1.7,1.6h11.8c0.9,0,1.6-0.7,1.7-1.6l0.6-13.7h1.6c0.1,0,0.2-0.1,0.2-0.2V4.6C20,4.2,19.6,3.8,19.2,3.8z M15.7,19.1
	H4.3L3.7,5.7h12.7L15.7,19.1z"/>
</svg>
